<svg xmlns="http://www.w3.org/2000/svg" xmlns:xlink="http://www.w3.org/1999/xlink" width="260" zoomAndPan="magnify" viewBox="0 0 194.87999 44.999999" height="60" preserveAspectRatio="xMidYMid meet" version="1.0"><defs><g/></defs><g fill="#9ce0f8" fill-opacity="1"><g transform="translate(7.380579, 32.885051)"><g><path d="M 11.699219 -8.746094 C 11.449219 -8.746094 11.257812 -8.554688 11.257812 -8.304688 C 11.257812 -7.367188 10.402344 -6.539062 9.4375 -6.539062 C 8.414062 -6.539062 7.613281 -7.367188 7.613281 -8.304688 L 7.613281 -13.769531 C 7.613281 -15.09375 9.023438 -16.140625 10.511719 -15.285156 C 10.925781 -15.035156 11.257812 -14.429688 11.257812 -13.933594 L 11.257812 -13.796875 C 11.257812 -13.574219 11.449219 -13.355469 11.699219 -13.355469 L 17.988281 -13.355469 C 18.183594 -13.355469 18.375 -13.546875 18.375 -13.769531 L 18.375 -14.265625 C 18.375 -18.789062 14.042969 -22.429688 9.4375 -22.429688 C 4.910156 -22.429688 0.46875 -18.789062 0.46875 -14.265625 L 0.46875 -8.027344 C 0.46875 -3.339844 4.910156 0.332031 9.4375 0.332031 C 14.042969 0.332031 18.375 -3.339844 18.375 -8.027344 L 18.375 -8.359375 C 18.375 -8.554688 18.183594 -8.746094 17.988281 -8.746094 Z M 11.699219 -8.746094 "/></g></g></g><g fill="#9ce0f8" fill-opacity="1"><g transform="translate(28.315241, 32.885051)"><g><path d="M 18.070312 -2.34375 L 16.359375 -9.050781 C 16.304688 -9.269531 16.25 -9.4375 16.167969 -9.574219 C 17.382812 -11.007812 18.15625 -12.773438 18.15625 -15.175781 C 18.15625 -19.394531 15.726562 -22.042969 12.71875 -22.042969 L 2.757812 -22.015625 C 1.683594 -22.015625 0.828125 -21.132812 0.828125 -19.5625 L 0.828125 -1.988281 C 0.828125 -0.964844 1.683594 -0.0820312 2.757812 -0.0820312 L 6.289062 -0.0820312 C 6.84375 -0.0820312 7.394531 -0.304688 7.753906 -0.746094 C 8.25 -1.296875 8.222656 -1.601562 8.222656 -2.042969 L 8.222656 -6.648438 C 8.222656 -6.703125 8.25 -6.816406 8.359375 -6.816406 C 8.46875 -6.816406 8.527344 -6.730469 8.527344 -6.675781 L 8.746094 -5.546875 L 9.464844 -2.179688 C 9.738281 -0.9375 10.953125 -0.0820312 11.890625 -0.0820312 L 16.359375 -0.0820312 C 17.4375 -0.0820312 18.347656 -1.046875 18.070312 -2.34375 Z M 10.734375 -14.457031 L 10.734375 -14.070312 C 10.734375 -13.1875 9.988281 -12.441406 9.105469 -12.441406 L 8.582031 -12.441406 C 8.359375 -12.441406 8.222656 -12.609375 8.222656 -12.800781 L 8.222656 -15.753906 C 8.222656 -15.949219 8.359375 -16.113281 8.582031 -16.113281 L 9.105469 -16.113281 C 9.988281 -16.113281 10.734375 -15.367188 10.734375 -14.457031 Z M 10.734375 -14.457031 "/></g></g></g><g fill="#9ce0f8" fill-opacity="1"><g transform="translate(49.470546, 32.885051)"><g><path d="M 8.609375 -16.085938 L 14.210938 -16.085938 C 15.007812 -16.085938 15.671875 -16.746094 15.671875 -17.519531 L 15.671875 -20.609375 C 15.671875 -21.410156 15.007812 -22.042969 14.210938 -22.042969 L 2.925781 -22.042969 C 1.792969 -22.042969 0.910156 -21.160156 0.910156 -20.527344 L 0.910156 -2.566406 C 0.910156 -0.9375 1.792969 -0.0546875 2.925781 -0.0546875 L 14.210938 -0.0546875 C 15.007812 -0.0546875 15.671875 -0.691406 15.671875 -1.488281 L 15.671875 -4.578125 C 15.671875 -5.378906 15.007812 -6.070312 14.210938 -6.070312 L 8.609375 -6.070312 C 8.496094 -6.070312 8.414062 -6.152344 8.414062 -6.261719 L 8.414062 -8.027344 C 8.414062 -8.140625 8.496094 -8.222656 8.609375 -8.222656 L 12.664062 -8.222656 C 13.382812 -8.222656 13.988281 -8.800781 13.988281 -9.546875 L 13.988281 -12.554688 C 13.988281 -13.269531 13.382812 -13.878906 12.664062 -13.878906 L 8.609375 -13.878906 C 8.496094 -13.878906 8.414062 -13.960938 8.414062 -14.042969 L 8.414062 -15.863281 C 8.414062 -15.949219 8.496094 -16.085938 8.609375 -16.085938 Z M 8.609375 -16.085938 "/></g></g></g><g fill="#9ce0f8" fill-opacity="1"><g transform="translate(68.143603, 32.885051)"><g><path d="M 21.050781 -2.316406 L 16.359375 -20.167969 C 16.277344 -20.5 16.195312 -20.996094 15.808594 -21.4375 C 15.394531 -21.851562 14.871094 -21.960938 14.484375 -21.960938 L 7.257812 -21.960938 C 6.84375 -21.960938 6.457031 -21.824219 6.179688 -21.601562 C 5.90625 -21.410156 5.601562 -21.078125 5.492188 -20.582031 L 0.523438 -2.34375 C 0.304688 -1.460938 0.71875 -0.523438 1.546875 -0.164062 C 1.765625 -0.0546875 1.988281 -0.0273438 2.261719 -0.0273438 L 6.015625 -0.0273438 C 7.035156 -0.0273438 7.449219 -0.664062 7.863281 -1.710938 L 8.664062 -3.863281 L 12.886719 -3.863281 L 13.710938 -1.710938 C 14.125 -0.664062 14.539062 0 15.5625 0 L 19.3125 0 C 19.617188 0 19.921875 -0.0820312 20.140625 -0.222656 C 20.886719 -0.605469 21.246094 -1.488281 21.050781 -2.316406 Z M 12.085938 -10.234375 L 9.519531 -10.234375 C 9.242188 -10.234375 9.023438 -10.484375 9.160156 -10.761719 L 9.878906 -12.636719 L 10.429688 -14.070312 C 10.539062 -14.429688 11.035156 -14.429688 11.148438 -14.070312 L 11.726562 -12.636719 L 12.441406 -10.761719 C 12.527344 -10.484375 12.332031 -10.234375 12.085938 -10.234375 Z M 12.085938 -10.234375 "/></g></g></g><g fill="#9ce0f8" fill-opacity="1"><g transform="translate(91.808743, 32.885051)"><g><path d="M 18.484375 -22.074219 L 2.84375 -22.074219 C 1.792969 -22.074219 0.910156 -21.21875 0.910156 -20.140625 L 0.910156 -16.359375 C 0.910156 -15.3125 1.792969 -14.429688 2.84375 -14.429688 L 6.648438 -14.429688 C 6.757812 -14.429688 6.84375 -14.320312 6.84375 -14.238281 L 6.84375 -1.875 C 6.84375 -0.828125 7.699219 0.0546875 8.800781 0.0546875 L 12.554688 0.0546875 C 13.601562 0.0546875 14.484375 -0.828125 14.484375 -1.875 L 14.484375 -14.238281 C 14.484375 -14.320312 14.59375 -14.429688 14.707031 -14.429688 L 18.484375 -14.429688 C 19.535156 -14.429688 20.417969 -15.3125 20.417969 -16.359375 L 20.417969 -20.140625 C 20.417969 -21.21875 19.535156 -22.074219 18.484375 -22.074219 Z M 18.484375 -22.074219 "/></g></g></g><g fill="#9ce0f8" fill-opacity="1"><g transform="translate(115.225665, 32.885051)"><g><path d="M 9.464844 -22.402344 C 4.9375 -22.402344 0.46875 -18.761719 0.46875 -14.210938 L 0.46875 -7.917969 C 0.46875 -3.199219 4.9375 0.46875 9.464844 0.46875 C 14.097656 0.46875 18.457031 -3.199219 18.457031 -7.917969 L 18.457031 -14.210938 C 18.457031 -18.761719 14.097656 -22.402344 9.464844 -22.402344 Z M 11.3125 -8.195312 C 11.3125 -7.257812 10.457031 -6.429688 9.464844 -6.429688 C 8.441406 -6.429688 7.640625 -7.257812 7.640625 -8.195312 L 7.640625 -13.710938 C 7.640625 -14.707031 8.441406 -15.535156 9.464844 -15.535156 C 10.457031 -15.535156 11.3125 -14.707031 11.3125 -13.710938 Z M 11.3125 -8.195312 "/></g></g></g><g fill="#9ce0f8" fill-opacity="1"><g transform="translate(136.24307, 32.885051)"><g><path d="M 18.070312 -2.34375 L 16.359375 -9.050781 C 16.304688 -9.269531 16.25 -9.4375 16.167969 -9.574219 C 17.382812 -11.007812 18.15625 -12.773438 18.15625 -15.175781 C 18.15625 -19.394531 15.726562 -22.042969 12.71875 -22.042969 L 2.757812 -22.015625 C 1.683594 -22.015625 0.828125 -21.132812 0.828125 -19.5625 L 0.828125 -1.988281 C 0.828125 -0.964844 1.683594 -0.0820312 2.757812 -0.0820312 L 6.289062 -0.0820312 C 6.84375 -0.0820312 7.394531 -0.304688 7.753906 -0.746094 C 8.25 -1.296875 8.222656 -1.601562 8.222656 -2.042969 L 8.222656 -6.648438 C 8.222656 -6.703125 8.25 -6.816406 8.359375 -6.816406 C 8.46875 -6.816406 8.527344 -6.730469 8.527344 -6.675781 L 8.746094 -5.546875 L 9.464844 -2.179688 C 9.738281 -0.9375 10.953125 -0.0820312 11.890625 -0.0820312 L 16.359375 -0.0820312 C 17.4375 -0.0820312 18.347656 -1.046875 18.070312 -2.34375 Z M 10.734375 -14.457031 L 10.734375 -14.070312 C 10.734375 -13.1875 9.988281 -12.441406 9.105469 -12.441406 L 8.582031 -12.441406 C 8.359375 -12.441406 8.222656 -12.609375 8.222656 -12.800781 L 8.222656 -15.753906 C 8.222656 -15.949219 8.359375 -16.113281 8.582031 -16.113281 L 9.105469 -16.113281 C 9.988281 -16.113281 10.734375 -15.367188 10.734375 -14.457031 Z M 10.734375 -14.457031 "/></g></g></g><g fill="#9ce0f8" fill-opacity="1"><g transform="translate(157.398373, 32.885051)"><g><path d="M 14.238281 -22.015625 L 2.925781 -22.015625 C 1.820312 -22.015625 0.910156 -21.105469 0.910156 -19.976562 L 0.910156 -2.042969 C 0.910156 -0.910156 1.820312 0 2.925781 0 L 6.375 0 C 7.503906 0 8.414062 -0.910156 8.414062 -2.042969 L 8.414062 -7.230469 C 8.414062 -7.367188 8.496094 -7.421875 8.609375 -7.449219 L 12.664062 -7.449219 C 13.382812 -7.449219 13.988281 -8.027344 13.988281 -8.746094 L 13.988281 -11.78125 C 13.988281 -12.527344 13.382812 -13.105469 12.664062 -13.105469 L 8.609375 -13.105469 C 8.496094 -13.105469 8.414062 -13.1875 8.414062 -13.296875 L 8.414062 -15.835938 C 8.414062 -15.917969 8.496094 -16.03125 8.609375 -16.03125 L 14.238281 -16.03125 C 15.035156 -16.03125 15.671875 -16.691406 15.671875 -17.464844 L 15.671875 -20.554688 C 15.671875 -21.382812 15.035156 -22.015625 14.238281 -22.015625 Z M 14.238281 -22.015625 "/></g></g></g><g fill="#9ce0f8" fill-opacity="1"><g transform="translate(176.071425, 32.885051)"><g><path d="M 2.871094 0.0273438 L 6.289062 0.0273438 C 7.449219 0.0273438 8.277344 -0.910156 8.277344 -1.957031 L 8.277344 -20.085938 C 8.277344 -21.246094 7.449219 -22.074219 6.289062 -22.074219 L 2.871094 -22.074219 C 1.792969 -22.074219 0.910156 -21.246094 0.910156 -20.085938 L 0.910156 -1.957031 C 0.910156 -0.910156 1.792969 0.0273438 2.871094 0.0273438 Z M 2.871094 0.0273438 "/></g></g></g><path stroke-linecap="butt" transform="matrix(0.749538, 0, 0, 0.749538, 5.545781, 7.072083)" fill="none" stroke-linejoin="miter" d="M 19.54995 21.333687 C 19.216411 21.333687 18.955834 21.589052 18.955834 21.917379 C 18.955834 23.168149 17.814507 24.272996 16.527256 24.272996 C 15.161832 24.272996 14.093466 23.168149 14.093466 21.917379 L 14.093466 14.631645 C 14.093466 12.859721 15.969621 11.46824 17.965641 12.609567 C 18.512853 12.943106 18.955834 13.750894 18.955834 14.41276 L 18.955834 14.595164 C 18.955834 14.892222 19.216411 15.18928 19.54995 15.18928 L 27.940531 15.18928 C 28.190685 15.18928 28.451262 14.928703 28.451262 14.631645 L 28.451262 13.964568 C 28.451262 7.934815 22.676874 3.072447 16.527256 3.072447 C 10.48708 3.072447 4.56677 7.934815 4.56677 13.964568 L 4.56677 22.287399 C 4.56677 28.541248 10.48708 33.440096 16.527256 33.440096 C 22.676874 33.440096 28.451262 28.541248 28.451262 22.287399 L 28.451262 21.849629 C 28.451262 21.589052 28.190685 21.333687 27.940531 21.333687 Z M 55.978621 29.870191 L 53.695966 20.932398 C 53.623004 20.63534 53.555254 20.411244 53.435389 20.22884 C 55.050967 18.316204 56.088063 15.960588 56.088063 12.750279 C 56.088063 7.127026 52.851696 3.58839 48.833598 3.58839 L 35.554592 3.619659 C 34.116207 3.619659 32.974879 4.797467 32.974879 6.90293 L 32.974879 30.349652 C 32.974879 31.715076 34.116207 32.892884 35.554592 32.892884 L 40.260613 32.892884 C 41.000652 32.892884 41.735479 32.595826 42.20973 32.001711 C 42.876807 31.266884 42.840326 30.860383 42.840326 30.276691 L 42.840326 24.132284 C 42.840326 24.059322 42.876807 23.902976 43.02273 23.902976 C 43.163442 23.902976 43.246826 24.022842 43.246826 24.095803 L 43.533461 25.601939 L 44.492385 30.089075 C 44.862404 31.751557 46.477982 32.892884 47.728752 32.892884 L 53.695966 32.892884 C 55.134351 32.892884 56.34864 31.600422 55.978621 29.870191 Z M 46.186135 13.714414 L 46.186135 14.225145 C 46.186135 15.402953 45.195943 16.403569 44.018134 16.403569 L 43.314576 16.403569 C 43.02273 16.403569 42.840326 16.174261 42.840326 15.913684 L 42.840326 11.978971 C 42.840326 11.728817 43.02273 11.50472 43.314576 11.50472 L 44.018134 11.50472 C 45.195943 11.50472 46.186135 12.500125 46.186135 13.714414 Z M 71.576763 11.541201 L 79.044901 11.541201 C 80.113267 11.541201 81.00444 10.660451 81.00444 9.623354 L 81.00444 5.501025 C 81.00444 4.437871 80.113267 3.58839 79.044901 3.58839 L 63.993971 3.58839 C 62.482624 3.58839 61.304816 4.760986 61.304816 5.615679 L 61.304816 29.578344 C 61.304816 31.751557 62.482624 32.929365 63.993971 32.929365 L 79.044901 32.929365 C 80.113267 32.929365 81.00444 32.085095 81.00444 31.011518 L 81.00444 26.889189 C 81.00444 25.820823 80.113267 24.903592 79.044901 24.903592 L 71.576763 24.903592 C 71.43084 24.903592 71.316186 24.79415 71.316186 24.643015 L 71.316186 22.287399 C 71.316186 22.141475 71.43084 22.026821 71.576763 22.026821 L 76.986342 22.026821 C 77.950477 22.026821 78.758266 21.255513 78.758266 20.265321 L 78.758266 16.247223 C 78.758266 15.293511 77.950477 14.485722 76.986342 14.485722 L 71.576763 14.485722 C 71.43084 14.485722 71.316186 14.371068 71.316186 14.261626 L 71.316186 11.838259 C 71.316186 11.728817 71.43084 11.541201 71.576763 11.541201 Z M 113.086686 29.906671 L 106.832837 6.095141 C 106.723395 5.65216 106.608741 4.990294 106.09801 4.396179 C 105.550798 3.848967 104.84724 3.703044 104.326086 3.703044 L 94.684735 3.703044 C 94.137523 3.703044 93.616369 3.880236 93.256773 4.177294 C 92.886754 4.437871 92.475042 4.880852 92.329119 5.537506 L 85.70525 29.870191 C 85.408192 31.047999 85.955404 32.298769 87.060251 32.773019 C 87.357309 32.929365 87.654367 32.965846 88.024386 32.965846 L 93.027465 32.965846 C 94.387677 32.965846 94.945312 32.121576 95.492524 30.719672 L 96.56089 27.848113 L 102.194566 27.848113 L 103.299412 30.719672 C 103.851836 32.121576 104.409471 33.002327 105.764471 33.002327 L 110.76755 33.002327 C 111.174051 33.002327 111.580551 32.892884 111.877609 32.705269 C 112.873013 32.189326 113.347263 31.011518 113.086686 29.906671 Z M 101.1262 19.337666 L 97.702217 19.337666 C 97.332198 19.337666 97.040352 19.014551 97.227967 18.649743 L 98.181679 16.142992 L 98.916506 14.225145 C 99.067641 13.750894 99.724295 13.750894 99.87543 14.225145 L 100.65195 16.142992 L 101.605662 18.649743 C 101.720315 19.014551 101.459738 19.337666 101.1262 19.337666 Z M 141.23943 3.551909 L 120.37242 3.551909 C 118.970516 3.551909 117.792708 4.693236 117.792708 6.131622 L 117.792708 11.171182 C 117.792708 12.573086 118.970516 13.750894 120.37242 13.750894 L 125.448461 13.750894 C 125.599596 13.750894 125.709038 13.891606 125.709038 14.001048 L 125.709038 30.490364 C 125.709038 31.892268 126.850366 33.070077 128.325232 33.070077 L 133.328311 33.070077 C 134.719793 33.070077 135.897601 31.892268 135.897601 30.490364 L 135.897601 14.001048 C 135.897601 13.891606 136.053947 13.750894 136.194659 13.750894 L 141.23943 13.750894 C 142.641335 13.750894 143.819143 12.573086 143.819143 11.171182 L 143.819143 6.131622 C 143.819143 4.693236 142.641335 3.551909 141.23943 3.551909 Z M 160.443959 3.108928 C 154.408994 3.108928 148.446991 7.971296 148.446991 14.047952 L 148.446991 22.433322 C 148.446991 28.728863 154.408994 33.627712 160.443959 33.627712 C 166.630058 33.627712 172.440926 28.728863 172.440926 22.433322 L 172.440926 14.047952 C 172.440926 7.971296 166.630058 3.108928 160.443959 3.108928 Z M 162.909017 22.063302 C 162.909017 23.319284 161.76769 24.42413 160.443959 24.42413 C 159.078535 24.42413 158.020592 23.319284 158.020592 22.063302 L 158.020592 14.704606 C 158.020592 13.380875 159.078535 12.276028 160.443959 12.276028 C 161.76769 12.276028 162.909017 13.380875 162.909017 14.704606 Z M 199.973496 29.870191 L 197.690841 20.932398 C 197.61788 20.63534 197.544918 20.411244 197.430264 20.22884 C 199.045842 18.316204 200.077727 15.960588 200.077727 12.750279 C 200.077727 7.127026 196.846572 3.58839 192.828474 3.58839 L 179.544256 3.619659 C 178.105871 3.619659 176.964543 4.797467 176.964543 6.90293 L 176.964543 30.349652 C 176.964543 31.715076 178.105871 32.892884 179.544256 32.892884 L 184.255489 32.892884 C 184.990316 32.892884 185.725144 32.595826 186.204605 32.001711 C 186.866471 31.266884 186.835202 30.860383 186.835202 30.276691 L 186.835202 24.132284 C 186.835202 24.059322 186.866471 23.902976 187.012394 23.902976 C 187.158317 23.902976 187.23649 24.022842 187.23649 24.095803 L 187.523125 25.601939 L 188.48726 30.089075 C 188.85728 31.751557 190.472857 32.892884 191.723627 32.892884 L 197.690841 32.892884 C 199.129227 32.892884 200.338304 31.600422 199.973496 29.870191 Z M 190.175799 13.714414 L 190.175799 14.225145 C 190.175799 15.402953 189.185607 16.403569 188.007798 16.403569 L 187.309452 16.403569 C 187.012394 16.403569 186.835202 16.174261 186.835202 15.913684 L 186.835202 11.978971 C 186.835202 11.728817 187.012394 11.50472 187.309452 11.50472 L 188.007798 11.50472 C 189.185607 11.50472 190.175799 12.500125 190.175799 13.714414 Z M 223.081469 3.619659 L 207.983635 3.619659 C 206.508769 3.619659 205.299691 4.844371 205.299691 6.355718 L 205.299691 30.276691 C 205.299691 31.788038 206.508769 33.002327 207.983635 33.002327 L 212.585425 33.002327 C 214.096772 33.002327 215.311061 31.788038 215.311061 30.276691 L 215.311061 23.355764 C 215.311061 23.168149 215.425715 23.095187 215.571638 23.058707 L 220.981218 23.058707 C 221.940141 23.058707 222.74793 22.287399 222.74793 21.333687 L 222.74793 17.284319 C 222.74793 16.283703 221.940141 15.512395 220.981218 15.512395 L 215.571638 15.512395 C 215.425715 15.512395 215.311061 15.402953 215.311061 15.262241 L 215.311061 11.869528 C 215.311061 11.765297 215.425715 11.608951 215.571638 11.608951 L 223.081469 11.608951 C 224.144623 11.608951 224.999316 10.728201 224.999316 9.696316 L 224.999316 5.573987 C 224.999316 4.474352 224.144623 3.619659 223.081469 3.619659 Z M 232.82705 33.033596 L 237.39236 33.033596 C 238.934976 33.033596 240.039823 31.788038 240.039823 30.386133 L 240.039823 6.199372 C 240.039823 4.656756 238.934976 3.551909 237.39236 3.551909 L 232.82705 3.551909 C 231.388665 3.551909 230.210857 4.656756 230.210857 6.199372 L 230.210857 30.386133 C 230.210857 31.788038 231.388665 33.033596 232.82705 33.033596 Z M 232.82705 33.033596 " stroke="#c3efff" stroke-width="0.437165" stroke-opacity="1" stroke-miterlimit="4"/></svg>